<?xml version="1.0" encoding="UTF-8" standalone="no"?>
<svg
   version="1.2"
   viewBox="0 0 733.20001 240.2"
   width="733.20001"
   height="240.2"
   id="svg1"
   sodipodi:docname="icc-logo.svg"
   inkscape:version="1.3.1 (91b66b0783, 2023-11-16)"
   xmlns:inkscape="http://www.inkscape.org/namespaces/inkscape"
   xmlns:sodipodi="http://sodipodi.sourceforge.net/DTD/sodipodi-0.dtd"
   xmlns="http://www.w3.org/2000/svg"
   xmlns:svg="http://www.w3.org/2000/svg">
  <defs
     id="defs1" />
  <sodipodi:namedview
     id="namedview1"
     pagecolor="#ffffff"
     bordercolor="#000000"
     borderopacity="0.25"
     inkscape:showpageshadow="2"
     inkscape:pageopacity="0.0"
     inkscape:pagecheckerboard="0"
     inkscape:deskcolor="#d1d1d1"
     inkscape:zoom="0.73611111"
     inkscape:cx="415.01887"
     inkscape:cy="40.075472"
     inkscape:window-width="1920"
     inkscape:window-height="991"
     inkscape:window-x="-9"
     inkscape:window-y="-9"
     inkscape:window-maximized="1"
     inkscape:current-layer="svg1" />
  <title
     id="title1">Neues Projekt</title>
  <style
     id="style1">
		.s0 { fill: #ffffff } 
	</style>
  <path
     id=" ICCC  "
     class="s0"
     aria-label=" ICCC  "
     d="m 0,235.6 h 59.4 l 42,-231 H 42 Z m 218.9,4.6 c 38.7,0 69.9,-15.5 90.3,-43.5 L 271.4,159 c -13.2,17.5 -29.4,27.1 -49.5,27.1 -34.5,0 -58.5,-26.4 -58.5,-66 0,-39.6 24,-66 58.5,-66 20.1,0 36.3,9.6 49.5,27.1 L 309.2,43.5 C 288.8,15.5 257.6,0 218.9,0 152.3,0 103.4,49.8 103.4,120.1 c 0,70.3 48.9,120.1 115.5,120.1 z m 212,0 c 38.7,0 69.9,-15.5 90.3,-43.5 L 483.4,159 c -13.2,17.5 -29.4,27.1 -49.5,27.1 -34.5,0 -58.5,-26.4 -58.5,-66 0,-39.6 24,-66 58.5,-66 20.1,0 36.3,9.6 49.5,27.1 L 521.2,43.5 C 500.8,15.5 469.6,0 430.9,0 364.3,0 315.4,49.8 315.4,120.1 c 0,70.3 48.9,120.1 115.5,120.1 z m 212,0 c 38.7,0 69.9,-15.5 90.3,-43.5 L 695.4,159 c -13.2,17.5 -29.4,27.1 -49.5,27.1 -34.5,0 -58.5,-26.4 -58.5,-66 0,-39.6 24,-66 58.5,-66 20.1,0 36.3,9.6 49.5,27.1 L 733.2,43.5 C 712.8,15.5 681.6,0 642.9,0 576.3,0 527.4,49.8 527.4,120.1 c 0,70.3 48.9,120.1 115.5,120.1 z" />
</svg>
