<?xml version="1.0" encoding="UTF-8" standalone="no"?>
<svg
   version="1.2"
   viewBox="0 0 734.90002 398.5"
   width="734.90002"
   height="398.5"
   id="svg1"
   sodipodi:docname="icc-Logo-banner.svg"
   inkscape:version="1.3.1 (91b66b0783, 2023-11-16)"
   xmlns:inkscape="http://www.inkscape.org/namespaces/inkscape"
   xmlns:sodipodi="http://sodipodi.sourceforge.net/DTD/sodipodi-0.dtd"
   xmlns="http://www.w3.org/2000/svg"
   xmlns:svg="http://www.w3.org/2000/svg">
  <defs
     id="defs1" />
  <sodipodi:namedview
     id="namedview1"
     pagecolor="#ffffff"
     bordercolor="#000000"
     borderopacity="0.25"
     inkscape:showpageshadow="2"
     inkscape:pageopacity="0.0"
     inkscape:pagecheckerboard="0"
     inkscape:deskcolor="#d1d1d1"
     inkscape:zoom="0.73611111"
     inkscape:cx="416.37736"
     inkscape:cy="40.075472"
     inkscape:window-width="1920"
     inkscape:window-height="991"
     inkscape:window-x="-9"
     inkscape:window-y="-9"
     inkscape:window-maximized="1"
     inkscape:current-layer="svg1" />
  <title
     id="title1">Neues Projekt</title>
  <style
     id="style1">
		.s0 { fill: #ffffff } 
	</style>
  <path
     id=" ICCC IMPERIAL COLLEGE  CYCLING "
     class="s0"
     aria-label=" ICCC IMPERIAL COLLEGE  CYCLING CLUB  "
     d="m 1.7,235.6 h 59.4 l 42,-231 H 43.7 Z m 218.9,4.6 c 38.7,0 69.9,-15.5 90.3,-43.5 L 273.1,159 c -13.2,17.5 -29.4,27.1 -49.5,27.1 -34.5,0 -58.5,-26.4 -58.5,-66 0,-39.6 24,-66 58.5,-66 20.1,0 36.3,9.6 49.5,27.1 L 310.9,43.5 C 290.5,15.5 259.3,0 220.6,0 154,0 105.1,49.8 105.1,120.1 c 0,70.3 48.9,120.1 115.5,120.1 z m 212,0 c 38.7,0 69.9,-15.5 90.3,-43.5 L 485.1,159 c -13.2,17.5 -29.4,27.1 -49.5,27.1 -34.5,0 -58.5,-26.4 -58.5,-66 0,-39.6 24,-66 58.5,-66 20.1,0 36.3,9.6 49.5,27.1 L 522.9,43.5 C 502.5,15.5 471.3,0 432.6,0 366,0 317.1,49.8 317.1,120.1 c 0,70.3 48.9,120.1 115.5,120.1 z m 212,0 c 38.7,0 69.9,-15.5 90.3,-43.5 L 697.1,159 c -13.2,17.5 -29.4,27.1 -49.5,27.1 -34.5,0 -58.5,-26.4 -58.5,-66 0,-39.6 24,-66 58.5,-66 20.1,0 36.3,9.6 49.5,27.1 L 734.9,43.5 C 714.5,15.5 683.3,0 644.6,0 578,0 529.1,49.8 529.1,120.1 c 0,70.3 48.9,120.1 115.5,120.1 z M 3.7,322.6 H 13 V 267.2 H 3.7 Z m 78.1,0 -0.1,-55.5 H 74 l -19.6,36.8 -20,-36.8 h -7.7 v 55.5 h 8.9 v -36.3 l 16.6,29.9 h 4.1 l 16.6,-30.4 0.1,36.8 z m 34.5,-55.5 H 95.6 v 55.5 h 9.4 v -16 h 11.3 c 13.3,0 21.5,-7.6 21.5,-19.8 0,-12.2 -8.2,-19.7 -21.5,-19.7 z m -0.4,30.7 H 105 v -22 h 10.9 c 8.2,0 12.5,4.1 12.5,11 0,7 -4.3,11 -12.5,11 z m 41.1,16.1 v -15.3 h 24.3 v -8.4 H 157 v -14.4 h 27.4 v -8.7 h -36.8 v 55.5 h 37.8 v -8.7 z m 81.7,8.7 -11.6,-18.3 c 6.9,-2.9 10.7,-9.1 10.7,-17.5 0,-12.2 -8.2,-19.7 -21.4,-19.7 h -20.7 v 55.5 h 9.3 v -16.2 h 11.4 c 0.6,0 1.3,0 1.9,-0.1 l 10.3,16.3 z m -10.3,-35.8 c 0,7 -4.2,11.1 -12.4,11.1 h -11 v -22.1 h 11 c 8.2,0 12.4,4.1 12.4,11 z m 20.3,35.8 h 9.3 v -55.5 h -9.3 z m 59.7,0 h 9.8 l -22.8,-55.4 h -9.2 l -22.7,55.4 h 9.7 l 5,-12.8 h 25.2 z m -27.1,-20.9 9.4,-24.3 9.5,24.3 z m 43.4,20.9 h 35.7 v -8.7 H 334 v -46.8 h -9.3 z m 86.3,0.8 c 8.3,0 15.3,-3.2 20,-9.2 l -6,-6.4 c -3.7,4.5 -8.2,6.6 -13.5,6.6 -10.4,0 -18,-8.1 -18,-19.5 0,-11.4 7.6,-19.5 18,-19.5 5.3,0 9.8,2.2 13.5,6.5 l 6,-6.2 c -4.7,-6 -11.7,-9.3 -19.9,-9.3 -15.5,0 -27,12 -27,28.5 0,16.6 11.5,28.5 26.9,28.5 z m 52.2,0 c 15.6,0 27.2,-12 27.2,-28.5 0,-16.4 -11.6,-28.5 -27.2,-28.5 -15.6,0 -27.1,12.1 -27.1,28.5 0,16.4 11.5,28.5 27.1,28.5 z m 0,-9 c -10.1,0 -17.7,-8.1 -17.7,-19.5 0,-11.3 7.6,-19.5 17.7,-19.5 10.2,0 17.7,8.2 17.7,19.5 0,11.4 -7.5,19.5 -17.7,19.5 z m 36.5,8.2 h 35.7 v -8.7 H 509 v -46.7 h -9.3 z m 43,0 h 35.7 v -8.7 H 552 v -46.7 h -9.3 z m 53.3,-8.7 v -15.2 h 24.4 v -8.5 H 596 v -14.4 h 27.5 v -8.7 h -36.8 v 55.5 h 37.8 v -8.7 z m 73,-2.4 c -3.2,2 -6.7,2.8 -10.3,2.8 -10.7,0 -18.3,-8.2 -18.3,-19.5 0,-11.4 7.6,-19.4 18.3,-19.4 5.4,0 10,1.9 13.9,6.3 l 5.9,-6.3 c -4.7,-6 -11.8,-9.1 -20.2,-9.1 -15.8,0 -27.3,12 -27.3,28.5 0,16.6 11.5,28.6 27.2,28.6 7.1,0 14.4,-2.4 19.7,-7.1 V 294.2 H 669 Z m 30,2.5 v -15.3 h 24.3 v -8.5 H 699 v -14.4 h 27.4 v -8.6 h -36.8 v 55.4 h 37.8 V 314 Z M 27,398.4 c 8.3,0 15.3,-3.3 20,-9.3 l -6.1,-6.3 c -3.6,4.4 -8.2,6.6 -13.4,6.6 -10.5,0 -18,-8.1 -18,-19.5 0,-11.4 7.5,-19.5 18,-19.5 5.2,0 9.8,2.1 13.4,6.5 l 6.1,-6.3 c -4.7,-6 -11.7,-9.2 -20,-9.2 -15.4,0 -27,11.9 -27,28.5 0,16.5 11.6,28.5 27,28.5 z m 70.1,-56.2 h -9.2 l -14.9,27 -14.8,-27 h -10 l 19.8,36 v 19.4 h 9.4 V 378 Z m 26.8,56.3 c 8.3,0 15.4,-3.3 20.1,-9.3 l -6.1,-6.3 c -3.7,4.4 -8.2,6.5 -13.4,6.5 -10.5,0 -18,-8 -18,-19.4 0,-11.4 7.5,-19.5 18,-19.5 5.2,0 9.7,2.1 13.4,6.5 l 6.1,-6.3 c -4.7,-6 -11.8,-9.3 -20,-9.3 -15.5,0 -27,12 -27,28.6 0,16.5 11.5,28.5 26.9,28.5 z m 29.7,-0.8 h 35.7 V 389 H 163 v -46.8 h -9.4 z m 43,0 h 9.4 v -55.4 h -9.4 z m 58.5,-55.4 v 37.5 l -27.8,-37.5 h -7.7 v 55.4 h 9.3 v -37.5 l 27.8,37.5 h 7.7 v -55.4 z m 56.9,44.3 c -3.2,2.1 -6.7,2.9 -10.3,2.9 -10.7,0 -18.3,-8.3 -18.3,-19.5 0,-11.5 7.6,-19.5 18.3,-19.5 5.4,0 10,2 13.9,6.3 l 5.9,-6.3 c -4.7,-5.9 -11.8,-9 -20.2,-9 -15.8,0 -27.3,11.9 -27.3,28.5 0,16.5 11.5,28.5 27.2,28.5 7.1,0 14.4,-2.4 19.7,-7.1 V 369.3 H 312 Z m 64.9,11.9 c 8.3,0 15.4,-3.2 20.1,-9.2 l -6.1,-6.4 c -3.7,4.5 -8.2,6.6 -13.5,6.6 -10.4,0 -18,-8.1 -18,-19.5 0,-11.4 7.6,-19.5 18,-19.5 5.3,0 9.8,2.2 13.5,6.5 l 6.1,-6.2 c -4.7,-6 -11.8,-9.3 -20,-9.3 -15.5,0 -27,12 -27,28.5 0,16.6 11.5,28.5 26.9,28.5 z m 28.7,-0.8 h 35.7 V 389 H 415 v -46.7 h -9.4 z m 63.7,0.8 c 13.7,0 22,-8.8 22,-25 v -31.2 h -9.2 v 30.8 c 0,11.4 -4.6,16.4 -12.7,16.4 -8.2,0 -12.9,-5 -12.9,-16.4 v -30.8 h -9.3 v 31.2 c 0,16.2 8.3,25 22.1,25 z m 71,-29.6 c 3.9,-2.3 6.5,-6.5 6.5,-12.2 0,-8.8 -6.5,-14.4 -18.6,-14.4 h -23.6 v 55.4 h 25.1 c 12.9,0 19.7,-5.5 19.7,-15.1 0,-7.2 -3.7,-11.8 -9.1,-13.7 z m -13.1,-18.6 c 6.5,0 10.2,2.6 10.2,7.7 0,5.1 -3.7,7.6 -10.2,7.6 H 514 v -15.3 z m 1.8,39.3 h -15.1 v -16 H 529 c 7.1,0 10.9,2.5 10.9,8 0,5.6 -3.8,8 -10.9,8 z" />
</svg>
