<?xml version="1.0" encoding="UTF-8" standalone="no"?>
<svg
   version="1.2"
   viewBox="0 0 734.09998 143.5"
   width="734.09998"
   height="143.5"
   id="svg1"
   sodipodi:docname="icc-Logo-banner.svg"
   inkscape:version="1.3.1 (91b66b0783, 2023-11-16)"
   xmlns:inkscape="http://www.inkscape.org/namespaces/inkscape"
   xmlns:sodipodi="http://sodipodi.sourceforge.net/DTD/sodipodi-0.dtd"
   xmlns="http://www.w3.org/2000/svg"
   xmlns:svg="http://www.w3.org/2000/svg">
  <defs
     id="defs1" />
  <sodipodi:namedview
     id="namedview1"
     pagecolor="#ffffff"
     bordercolor="#000000"
     borderopacity="0.25"
     inkscape:showpageshadow="2"
     inkscape:pageopacity="0.0"
     inkscape:pagecheckerboard="0"
     inkscape:deskcolor="#d1d1d1"
     inkscape:zoom="0.73611111"
     inkscape:cx="417.73585"
     inkscape:cy="-46.867925"
     inkscape:window-width="1920"
     inkscape:window-height="991"
     inkscape:window-x="-9"
     inkscape:window-y="-9"
     inkscape:window-maximized="1"
     inkscape:current-layer="svg1" />
  <title
     id="title1">Neues Projekt</title>
  <style
     id="style1">
		.s0 { fill: #ffffff } 
	</style>
  <path
     id="  IMPERIAL COLLEGE  CYCLING CLUB"
     class="s0"
     aria-label="  IMPERIAL COLLEGE  CYCLING CLUB  "
     d="M 3.2,56.4 H 14.8 V 1 H 3.2 Z M 84,56.4 83.8,0.9 H 74.3 L 55.7,35.4 36.8,0.9 H 27.2 V 56.4 H 38.1 V 23.8 l 14.8,26.7 h 5.2 L 73,23.1 V 56.4 Z M 118,0.9 H 96.2 v 55.5 h 11.7 V 41.1 H 118 c 13.5,0 21.9,-7.7 21.9,-20.1 C 139.9,8.6 131.5,0.9 118,0.9 Z m -0.6,29.7 h -9.5 V 11.4 h 9.5 c 7.1,0 10.7,3.5 10.7,9.6 0,6.1 -3.6,9.6 -10.7,9.6 z m 42.4,15.5 V 33.2 h 23.4 V 23.3 H 159.8 V 11.2 h 26.5 V 0.9 h -38.1 v 55.5 h 39.1 V 46.1 Z m 81,10.3 -11.3,-17.9 c 6.6,-3 10.4,-9.1 10.4,-17.5 C 239.9,8.6 231.4,0.9 218,0.9 h -21.8 v 55.5 h 11.6 V 40.9 h 10.2 0.6 l 9.7,15.5 z M 228,21 c 0,6.1 -3.6,9.7 -10.7,9.7 h -9.5 V 11.4 h 9.5 c 7.1,0 10.7,3.5 10.7,9.6 z m 21.1,35.4 h 11.7 V 0.9 h -11.7 z m 61.7,0 H 323 L 300.5,1 H 289 l -22.5,55.4 h 12 l 4.4,-11.9 h 23.4 z m -24.1,-21.6 8,-21.2 8,21.2 z m 41.5,21.6 h 36.9 V 46 H 339.8 V 1 h -11.6 z m 88.1,1 c 8.8,0 16,-3.5 20.8,-9.9 l -7.5,-7.7 c -3.4,4.4 -7.6,6.6 -12.7,6.6 -9.4,0 -16.1,-7.3 -16.1,-17.7 0,-10.5 6.7,-17.8 16.1,-17.8 5.1,0 9.3,2.3 12.7,6.5 l 7.5,-7.6 C 432.3,3.5 425.1,0 416.3,0 400.7,0 389,12 389,28.7 c 0,16.7 11.7,28.7 27.3,28.7 z m 51.3,0 c 15.8,0 27.5,-12.2 27.5,-28.7 C 495.1,12.1 483.4,0 467.6,0 451.7,0 440,12.2 440,28.7 c 0,16.5 11.7,28.7 27.6,28.7 z m 0,-11 c -9,0 -15.8,-7.2 -15.8,-17.7 0,-10.6 6.8,-17.8 15.8,-17.8 9,0 15.7,7.2 15.7,17.8 0,10.5 -6.7,17.7 -15.7,17.7 z m 36.6,10 h 36.9 V 45.9 H 515.8 V 1 h -11.6 z m 44,0 h 36.9 V 45.9 H 559.8 V 0.9 H 548.2 Z M 602.7,46.1 V 33.3 h 23.4 v -10 h -23.4 v -12 h 26.5 V 1 h -38 v 55.4 h 39 V 46.1 Z m 70.4,-2 c -2.9,1.7 -5.9,2.3 -9,2.3 -9.7,0 -16.4,-7.3 -16.4,-17.7 0,-10.5 6.7,-17.7 16.5,-17.7 5.1,0 9.4,1.9 13,6.2 l 7.5,-7.6 C 679.8,3.4 672.5,0 663.6,0 c -16,0 -27.7,12 -27.7,28.7 0,16.7 11.7,28.7 27.5,28.7 7.2,0 14.9,-2.5 20.4,-7.1 V 27.8 h -10.7 z m 33.6,2.1 V 33.4 h 23.4 v -10 H 706.7 V 11.3 h 26.5 V 1 h -38.1 v 55.5 h 39 V 46.2 Z M 27.2,143.4 c 8.8,0 16.1,-3.5 20.8,-9.9 l -7.4,-7.6 c -3.4,4.4 -7.7,6.6 -12.7,6.6 -9.4,0 -16.1,-7.3 -16.1,-17.7 0,-10.5 6.7,-17.8 16.1,-17.8 5,0 9.3,2.2 12.7,6.5 L 48,95.9 C 43.3,89.6 36,86.1 27.3,86.1 11.6,86.1 0,98.1 0,114.8 c 0,16.7 11.6,28.6 27.2,28.6 z M 99.9,87 H 88.4 L 75,111.7 61.5,87 H 49.1 l 19.5,35.7 v 19.8 h 11.7 v -19.7 z m 26.4,56.4 c 8.7,0 16,-3.5 20.8,-9.9 l -7.5,-7.6 c -3.4,4.4 -7.7,6.6 -12.7,6.6 -9.4,0 -16.1,-7.3 -16.1,-17.7 0,-10.5 6.7,-17.8 16.1,-17.8 5,0 9.3,2.2 12.7,6.5 l 7.5,-7.6 c -4.8,-6.3 -12.1,-9.8 -20.8,-9.8 -15.7,0 -27.3,12 -27.3,28.7 0,16.7 11.6,28.6 27.3,28.6 z m 28.8,-0.9 h 37 V 132 H 166.8 V 87 h -11.7 z m 43,0 h 11.7 V 87.1 h -11.7 z m 58.7,-55.4 v 33.6 l -25,-33.6 h -9.7 v 55.4 h 11.6 v -33.7 l 25.1,33.7 h 9.6 V 87.1 Z m 57.3,43 c -2.9,1.8 -5.9,2.4 -9.1,2.4 -9.6,0 -16.3,-7.3 -16.3,-17.7 0,-10.6 6.7,-17.8 16.5,-17.8 5.1,0 9.3,2 13,6.3 l 7.5,-7.6 c -4.9,-6.3 -12.2,-9.6 -21.1,-9.6 -16,0 -27.7,12 -27.7,28.7 0,16.7 11.7,28.7 27.5,28.7 7.2,0 14.8,-2.5 20.4,-7.1 v -22.5 h -10.7 z m 66.1,13.3 c 8.8,0 16,-3.5 20.8,-9.9 l -7.5,-7.6 c -3.4,4.4 -7.6,6.6 -12.7,6.6 -9.4,0 -16.1,-7.3 -16.1,-17.8 0,-10.4 6.7,-17.7 16.1,-17.7 5.1,0 9.3,2.2 12.7,6.5 l 7.5,-7.6 c -4.8,-6.3 -12,-9.8 -20.8,-9.8 -15.6,0 -27.3,11.9 -27.3,28.6 0,16.8 11.7,28.7 27.3,28.7 z m 28.9,-0.9 H 446 V 132 H 420.7 V 87 h -11.6 z m 65.3,1 c 14.4,0 22.9,-9.1 22.9,-25.4 v -31 h -11.5 v 30.6 c 0,10.5 -4.2,14.8 -11.3,14.8 -7,0 -11.2,-4.3 -11.2,-14.8 V 87.1 h -11.7 v 31 c 0,16.3 8.5,25.4 22.8,25.4 z m 70.7,-29.8 c 4.1,-2.4 6.7,-6.7 6.7,-12.2 0,-8.6 -6.5,-14.4 -19.1,-14.4 h -24.6 v 55.4 h 26 c 13.3,0 20.2,-5.5 20.2,-15.1 0,-7 -3.6,-11.7 -9.2,-13.7 z m -13.9,-17 c 5.7,0 8.8,2.2 8.8,6.5 0,4.4 -3.1,6.6 -8.8,6.6 H 519.6 V 96.7 Z m 2.1,36.2 h -13.6 v -13.7 h 13.6 c 6,0 9.3,2.2 9.3,6.9 0,4.7 -3.3,6.8 -9.3,6.8 z" />
</svg>
