<svg version="1.2" xmlns="http://www.w3.org/2000/svg" viewBox="0 0 1080 1080" width="1080" height="1080">
	<title>Neues Projekt</title>
	<style>
		.s0 { fill: #000000 } 
	</style>
	<path id=" ICCC IMPERIAL COLLEGE  CYCLING " class="s0" aria-label="
ICCC
IMPERIAL COLLEGE 
CYCLING CLUB

"  d="m124.8 736h59.4l42-231h-59.4zm218.9 4.6c38.7 0 69.9-15.5 90.3-43.5l-37.8-37.7c-13.2 17.5-29.4 27.1-49.5 27.1-34.5 0-58.5-26.4-58.5-66 0-39.6 24-66 58.5-66 20.1 0 36.3 9.6 49.5 27.1l37.8-37.7c-20.4-28-51.6-43.5-90.3-43.5-66.6 0-115.5 49.8-115.5 120.1 0 70.3 48.9 120.1 115.5 120.1zm212 0c38.7 0 69.9-15.5 90.3-43.5l-37.8-37.7c-13.2 17.5-29.4 27.1-49.5 27.1-34.5 0-58.5-26.4-58.5-66 0-39.6 24-66 58.5-66 20.1 0 36.3 9.6 49.5 27.1l37.8-37.7c-20.4-28-51.6-43.5-90.3-43.5-66.6 0-115.5 49.8-115.5 120.1 0 70.3 48.9 120.1 115.5 120.1zm212 0c38.7 0 69.9-15.5 90.3-43.5l-37.8-37.7c-13.2 17.5-29.4 27.1-49.5 27.1-34.5 0-58.5-26.4-58.5-66 0-39.6 24-66 58.5-66 20.1 0 36.3 9.6 49.5 27.1l37.8-37.7c-20.4-28-51.6-43.5-90.3-43.5-66.6 0-115.5 49.8-115.5 120.1 0 70.3 48.9 120.1 115.5 120.1zm-640.9 82.4h9.3v-55.4h-9.3zm78.1 0l-0.1-55.5h-7.7l-19.6 36.8-20-36.8h-7.7v55.5h8.9v-36.3l16.6 29.9h4.1l16.6-30.4 0.1 36.8zm34.5-55.5h-20.7v55.5h9.4v-16h11.3c13.3 0 21.5-7.6 21.5-19.8 0-12.2-8.2-19.7-21.5-19.7zm-0.4 30.7h-10.9v-22h10.9c8.2 0 12.5 4.1 12.5 11 0 7-4.3 11-12.5 11zm41.1 16.1v-15.3h24.3v-8.4h-24.3v-14.4h27.4v-8.7h-36.8v55.5h37.8v-8.7zm81.7 8.7l-11.6-18.3c6.9-2.9 10.7-9.1 10.7-17.5 0-12.2-8.2-19.7-21.4-19.7h-20.7v55.5h9.3v-16.2h11.4c0.6 0 1.3 0 1.9-0.1l10.3 16.3zm-10.3-35.8c0 7-4.2 11.1-12.4 11.1h-11v-22.1h11c8.2 0 12.4 4.1 12.4 11zm20.3 35.8h9.3v-55.5h-9.3zm59.7 0h9.8l-22.8-55.4h-9.2l-22.7 55.4h9.7l5-12.8h25.2zm-27.1-20.9l9.4-24.3 9.5 24.3zm43.4 20.9h35.7v-8.7h-26.4v-46.8h-9.3zm86.3 0.8c8.3 0 15.3-3.2 20-9.2l-6-6.4c-3.7 4.5-8.2 6.6-13.5 6.6-10.4 0-18-8.1-18-19.5 0-11.4 7.6-19.5 18-19.5 5.3 0 9.8 2.2 13.5 6.5l6-6.2c-4.7-6-11.7-9.3-19.9-9.3-15.5 0-27 12-27 28.5 0 16.6 11.5 28.5 26.9 28.5zm52.2 0c15.6 0 27.2-12 27.2-28.5 0-16.4-11.6-28.5-27.2-28.5-15.6 0-27.1 12.1-27.1 28.5 0 16.4 11.5 28.5 27.1 28.5zm0-9c-10.1 0-17.7-8.1-17.7-19.5 0-11.3 7.6-19.5 17.7-19.5 10.2 0 17.7 8.2 17.7 19.5 0 11.4-7.5 19.5-17.7 19.5zm36.5 8.2h35.7v-8.7h-26.4v-46.7h-9.3zm43 0h35.7v-8.7h-26.4v-46.7h-9.3zm53.3-8.7v-15.2h24.4v-8.5h-24.4v-14.4h27.5v-8.7h-36.8v55.5h37.8v-8.7zm73-2.4c-3.2 2-6.7 2.8-10.3 2.8-10.7 0-18.3-8.2-18.3-19.5 0-11.4 7.6-19.4 18.3-19.4 5.4 0 10 1.9 13.9 6.3l5.9-6.3c-4.7-6-11.8-9.1-20.2-9.1-15.8 0-27.3 12-27.3 28.5 0 16.6 11.5 28.6 27.2 28.6 7.1 0 14.4-2.4 19.7-7.1v-22.1h-8.9zm30 2.5v-15.3h24.3v-8.5h-24.3v-14.4h27.4v-8.6h-36.8v55.4h37.8v-8.6zm-672 84.4c8.3 0 15.3-3.3 20-9.3l-6.1-6.3c-3.6 4.4-8.2 6.6-13.4 6.6-10.5 0-18-8.1-18-19.5 0-11.4 7.5-19.5 18-19.5 5.2 0 9.8 2.1 13.4 6.5l6.1-6.3c-4.7-6-11.7-9.2-20-9.2-15.4 0-27 11.9-27 28.5 0 16.5 11.6 28.5 27 28.5zm70.1-56.2h-9.2l-14.9 27-14.8-27h-10l19.8 36v19.4h9.4v-19.6zm26.8 56.3c8.3 0 15.4-3.3 20.1-9.3l-6.1-6.3c-3.7 4.4-8.2 6.5-13.4 6.5-10.5 0-18-8-18-19.4 0-11.4 7.5-19.5 18-19.5 5.2 0 9.7 2.1 13.4 6.5l6.1-6.3c-4.7-6-11.8-9.3-20-9.3-15.5 0-27 12-27 28.6 0 16.5 11.5 28.5 26.9 28.5zm29.7-0.8h35.7v-8.7h-26.3v-46.8h-9.4zm43 0h9.4v-55.4h-9.4zm58.5-55.4v37.5l-27.8-37.5h-7.7v55.4h9.3v-37.5l27.8 37.5h7.7v-55.4zm56.9 44.3c-3.2 2.1-6.7 2.9-10.3 2.9-10.7 0-18.3-8.3-18.3-19.5 0-11.5 7.6-19.5 18.3-19.5 5.4 0 10 2 13.9 6.3l5.9-6.3c-4.7-5.9-11.8-9-20.2-9-15.8 0-27.3 11.9-27.3 28.5 0 16.5 11.5 28.5 27.2 28.5 7.1 0 14.4-2.4 19.7-7.1v-22.1h-8.9zm64.9 11.9c8.3 0 15.4-3.2 20.1-9.2l-6.1-6.4c-3.7 4.5-8.2 6.6-13.5 6.6-10.4 0-18-8.1-18-19.5 0-11.4 7.6-19.5 18-19.5 5.3 0 9.8 2.2 13.5 6.5l6.1-6.2c-4.7-6-11.8-9.3-20-9.3-15.5 0-27 12-27 28.5 0 16.6 11.5 28.5 26.9 28.5zm28.7-0.8h35.7v-8.7h-26.3v-46.7h-9.4zm63.7 0.8c13.7 0 22-8.8 22-25v-31.2h-9.2v30.8c0 11.4-4.6 16.4-12.7 16.4-8.2 0-12.9-5-12.9-16.4v-30.8h-9.3v31.2c0 16.2 8.3 25 22.1 25zm71-29.6c3.9-2.3 6.5-6.5 6.5-12.2 0-8.8-6.5-14.4-18.6-14.4h-23.6v55.4h25.1c12.9 0 19.7-5.5 19.7-15.1 0-7.2-3.7-11.8-9.1-13.7zm-13.1-18.6c6.5 0 10.2 2.6 10.2 7.7 0 5.1-3.7 7.6-10.2 7.6h-13.2v-15.3zm1.8 39.3h-15.1v-16h15.1c7.1 0 10.9 2.5 10.9 8 0 5.6-3.8 8-10.9 8z"/>
</svg>